<mxfile host="65bd71144e" modified="2021-02-16T09:01:56.778Z" agent="5.0 (Windows NT 10.0; Win64; x64) AppleWebKit/537.36 (KHTML, like Gecko) Code/1.53.2 Chrome/87.0.4280.141 Electron/11.2.1 Safari/537.36" etag="FJL4xnflUB4xqmXlmis5" version="14.2.4" type="embed">
    <diagram id="prtHgNgQTEPvFCAcTncT" name="Page-1">
        <mxGraphModel dx="3585" dy="2343" grid="1" gridSize="10" guides="1" tooltips="1" connect="1" arrows="1" fold="1" page="1" pageScale="1" pageWidth="827" pageHeight="1169" math="0" shadow="0">
            <root>
                <mxCell id="0"/>
                <mxCell id="1" parent="0"/>
                <mxCell id="nIdcYIH7QRFC6yB31dNg-30" value="" style="shape=image;verticalLabelPosition=bottom;verticalAlign=top;aspect=fixed;imageAspect=0;image=https://itsecforu.ru/wp-content/uploads/2018/12/nginx.png;" parent="1" vertex="1">
                    <mxGeometry x="195.43" y="476.09" width="121.14" height="77.81" as="geometry"/>
                </mxCell>
                <mxCell id="12" value="" style="shape=image;verticalLabelPosition=bottom;verticalAlign=top;aspect=fixed;imageAspect=0;image=https://guides.wp-bullet.com/wp-content/uploads/2017/01/centos-automatic-security-updates.png;" parent="1" vertex="1">
                    <mxGeometry x="-199.99999999999997" y="584.39" width="120" height="55.61" as="geometry"/>
                </mxCell>
                <mxCell id="6" style="edgeStyle=orthogonalEdgeStyle;rounded=0;orthogonalLoop=1;jettySize=auto;html=1;" parent="1" source="5" target="rxrXzZAJuEPQkS48RmaR-65" edge="1">
                    <mxGeometry relative="1" as="geometry"/>
                </mxCell>
                <mxCell id="5" value="docker контейнер" style="rounded=0;whiteSpace=wrap;html=1;" parent="1" vertex="1">
                    <mxGeometry x="15" y="60" width="110" height="77.5" as="geometry"/>
                </mxCell>
                <mxCell id="rxrXzZAJuEPQkS48RmaR-1" value="&lt;font style=&quot;font-size: 18px&quot;&gt;Схема Магазина&lt;/font&gt;" style="text;html=1;align=center;verticalAlign=middle;resizable=0;points=[];autosize=1;" parent="1" vertex="1">
                    <mxGeometry x="-735" width="150" height="20" as="geometry"/>
                </mxCell>
                <mxCell id="rxrXzZAJuEPQkS48RmaR-2" value="&lt;font style=&quot;font-size: 20px&quot;&gt;План работ&lt;/font&gt;" style="text;html=1;align=center;verticalAlign=middle;resizable=0;points=[];autosize=1;" parent="1" vertex="1">
                    <mxGeometry x="-1090" y="-30" width="120" height="20" as="geometry"/>
                </mxCell>
                <mxCell id="HfXP12kQXcB-YYXYpd6a-1" value="" style="edgeStyle=orthogonalEdgeStyle;rounded=0;orthogonalLoop=1;jettySize=auto;html=1;" parent="1" source="rxrXzZAJuEPQkS48RmaR-3" target="rxrXzZAJuEPQkS48RmaR-2" edge="1">
                    <mxGeometry relative="1" as="geometry"/>
                </mxCell>
                <mxCell id="rxrXzZAJuEPQkS48RmaR-3" value="1. Создать основу&lt;br&gt;1.1 Разобраться с параметрами&amp;nbsp;&lt;br&gt;2. Выбрать дизайн, настроить его&lt;br&gt;3. Настроить бэкенд&lt;br&gt;4. Подобрать хост&lt;br&gt;5. тестирование" style="text;html=1;align=center;verticalAlign=middle;resizable=0;points=[];autosize=1;" parent="1" vertex="1">
                    <mxGeometry x="-1130" y="80" width="200" height="90" as="geometry"/>
                </mxCell>
                <mxCell id="rxrXzZAJuEPQkS48RmaR-42" style="edgeStyle=orthogonalEdgeStyle;curved=1;rounded=0;orthogonalLoop=1;jettySize=auto;html=1;entryX=0.5;entryY=0;entryDx=0;entryDy=0;" parent="1" source="rxrXzZAJuEPQkS48RmaR-4" target="rxrXzZAJuEPQkS48RmaR-5" edge="1">
                    <mxGeometry relative="1" as="geometry"/>
                </mxCell>
                <mxCell id="rxrXzZAJuEPQkS48RmaR-44" style="edgeStyle=orthogonalEdgeStyle;curved=1;rounded=0;orthogonalLoop=1;jettySize=auto;html=1;" parent="1" source="rxrXzZAJuEPQkS48RmaR-4" target="rxrXzZAJuEPQkS48RmaR-14" edge="1">
                    <mxGeometry relative="1" as="geometry"/>
                </mxCell>
                <mxCell id="rxrXzZAJuEPQkS48RmaR-4" value="Django Framework" style="ellipse;whiteSpace=wrap;html=1;fontFamily=Helvetica;fontSize=12;align=center;" parent="1" vertex="1">
                    <mxGeometry x="-680" y="60" width="120" height="60" as="geometry"/>
                </mxCell>
                <mxCell id="rxrXzZAJuEPQkS48RmaR-13" style="edgeStyle=orthogonalEdgeStyle;curved=1;rounded=0;orthogonalLoop=1;jettySize=auto;html=1;entryX=0.5;entryY=0;entryDx=0;entryDy=0;exitX=0.5;exitY=1;exitDx=0;exitDy=0;" parent="1" source="rxrXzZAJuEPQkS48RmaR-5" target="rxrXzZAJuEPQkS48RmaR-12" edge="1">
                    <mxGeometry relative="1" as="geometry"/>
                </mxCell>
                <mxCell id="rxrXzZAJuEPQkS48RmaR-43" style="edgeStyle=orthogonalEdgeStyle;curved=1;rounded=0;orthogonalLoop=1;jettySize=auto;html=1;" parent="1" source="rxrXzZAJuEPQkS48RmaR-5" target="rxrXzZAJuEPQkS48RmaR-14" edge="1">
                    <mxGeometry relative="1" as="geometry"/>
                </mxCell>
                <mxCell id="rxrXzZAJuEPQkS48RmaR-5" value="Oscar Shop" style="rounded=1;whiteSpace=wrap;html=1;" parent="1" vertex="1">
                    <mxGeometry x="-810" y="130" width="120" height="60" as="geometry"/>
                </mxCell>
                <mxCell id="rxrXzZAJuEPQkS48RmaR-24" style="edgeStyle=orthogonalEdgeStyle;curved=1;rounded=0;orthogonalLoop=1;jettySize=auto;html=1;entryX=0.5;entryY=0;entryDx=0;entryDy=0;" parent="1" source="rxrXzZAJuEPQkS48RmaR-12" target="rxrXzZAJuEPQkS48RmaR-29" edge="1">
                    <mxGeometry relative="1" as="geometry">
                        <mxPoint x="-980" y="360" as="targetPoint"/>
                    </mxGeometry>
                </mxCell>
                <mxCell id="rxrXzZAJuEPQkS48RmaR-12" value="Frontend" style="rounded=1;whiteSpace=wrap;html=1;" parent="1" vertex="1">
                    <mxGeometry x="-810" y="250" width="120" height="60" as="geometry"/>
                </mxCell>
                <mxCell id="rxrXzZAJuEPQkS48RmaR-48" style="edgeStyle=orthogonalEdgeStyle;curved=1;rounded=0;orthogonalLoop=1;jettySize=auto;html=1;" parent="1" source="rxrXzZAJuEPQkS48RmaR-14" target="rxrXzZAJuEPQkS48RmaR-47" edge="1">
                    <mxGeometry relative="1" as="geometry"/>
                </mxCell>
                <mxCell id="rxrXzZAJuEPQkS48RmaR-14" value="Backend" style="rounded=1;whiteSpace=wrap;html=1;" parent="1" vertex="1">
                    <mxGeometry x="-380" y="240" width="120" height="60" as="geometry"/>
                </mxCell>
                <mxCell id="rxrXzZAJuEPQkS48RmaR-20" value="Html" style="rounded=1;whiteSpace=wrap;html=1;" parent="1" vertex="1">
                    <mxGeometry x="-1230" y="460" width="120" height="60" as="geometry"/>
                </mxCell>
                <mxCell id="rxrXzZAJuEPQkS48RmaR-25" style="edgeStyle=orthogonalEdgeStyle;curved=1;rounded=0;orthogonalLoop=1;jettySize=auto;html=1;exitX=0.5;exitY=1;exitDx=0;exitDy=0;" parent="1" source="rxrXzZAJuEPQkS48RmaR-29" target="rxrXzZAJuEPQkS48RmaR-20" edge="1">
                    <mxGeometry relative="1" as="geometry">
                        <mxPoint x="-1040" y="390.0344827586207" as="sourcePoint"/>
                    </mxGeometry>
                </mxCell>
                <mxCell id="rxrXzZAJuEPQkS48RmaR-29" value="Основа" style="rounded=1;whiteSpace=wrap;html=1;" parent="1" vertex="1">
                    <mxGeometry x="-1120" y="340" width="120" height="60" as="geometry"/>
                </mxCell>
                <mxCell id="rxrXzZAJuEPQkS48RmaR-32" style="edgeStyle=orthogonalEdgeStyle;curved=1;rounded=0;orthogonalLoop=1;jettySize=auto;html=1;entryX=0.5;entryY=0;entryDx=0;entryDy=0;" parent="1" source="rxrXzZAJuEPQkS48RmaR-30" target="rxrXzZAJuEPQkS48RmaR-31" edge="1">
                    <mxGeometry relative="1" as="geometry"/>
                </mxCell>
                <mxCell id="rxrXzZAJuEPQkS48RmaR-35" style="edgeStyle=orthogonalEdgeStyle;curved=1;rounded=0;orthogonalLoop=1;jettySize=auto;html=1;" parent="1" source="rxrXzZAJuEPQkS48RmaR-30" target="rxrXzZAJuEPQkS48RmaR-34" edge="1">
                    <mxGeometry relative="1" as="geometry"/>
                </mxCell>
                <mxCell id="rxrXzZAJuEPQkS48RmaR-30" value="Frontend" style="rounded=1;whiteSpace=wrap;html=1;" parent="1" vertex="1">
                    <mxGeometry x="-810" y="250" width="120" height="60" as="geometry"/>
                </mxCell>
                <mxCell id="rxrXzZAJuEPQkS48RmaR-38" style="edgeStyle=orthogonalEdgeStyle;curved=1;rounded=0;orthogonalLoop=1;jettySize=auto;html=1;entryX=0.5;entryY=0;entryDx=0;entryDy=0;" parent="1" source="rxrXzZAJuEPQkS48RmaR-31" target="rxrXzZAJuEPQkS48RmaR-39" edge="1">
                    <mxGeometry relative="1" as="geometry">
                        <mxPoint x="-890" y="510" as="targetPoint"/>
                    </mxGeometry>
                </mxCell>
                <mxCell id="rxrXzZAJuEPQkS48RmaR-31" value="Стиль" style="rounded=1;whiteSpace=wrap;html=1;" parent="1" vertex="1">
                    <mxGeometry x="-890" y="360" width="120" height="60" as="geometry"/>
                </mxCell>
                <mxCell id="rxrXzZAJuEPQkS48RmaR-37" style="edgeStyle=orthogonalEdgeStyle;curved=1;rounded=0;orthogonalLoop=1;jettySize=auto;html=1;" parent="1" source="rxrXzZAJuEPQkS48RmaR-34" target="rxrXzZAJuEPQkS48RmaR-36" edge="1">
                    <mxGeometry relative="1" as="geometry"/>
                </mxCell>
                <mxCell id="rxrXzZAJuEPQkS48RmaR-34" value="js" style="rounded=1;whiteSpace=wrap;html=1;" parent="1" vertex="1">
                    <mxGeometry x="-720" y="360" width="120" height="60" as="geometry"/>
                </mxCell>
                <mxCell id="rxrXzZAJuEPQkS48RmaR-36" value="jquery&amp;nbsp;" style="rounded=1;whiteSpace=wrap;html=1;" parent="1" vertex="1">
                    <mxGeometry x="-725" y="490" width="130" height="80" as="geometry"/>
                </mxCell>
                <mxCell id="rxrXzZAJuEPQkS48RmaR-39" value="&amp;nbsp;Bootsrap (желательно без css)" style="rounded=1;whiteSpace=wrap;html=1;" parent="1" vertex="1">
                    <mxGeometry x="-1000" y="490" width="120" height="60" as="geometry"/>
                </mxCell>
                <mxCell id="rxrXzZAJuEPQkS48RmaR-45" value="Частичный Бэкенд" style="text;html=1;align=center;verticalAlign=middle;resizable=0;points=[];autosize=1;" parent="1" vertex="1">
                    <mxGeometry x="-610" y="140" width="120" height="20" as="geometry"/>
                </mxCell>
                <mxCell id="rxrXzZAJuEPQkS48RmaR-46" value="Убрать sqlite" style="rounded=1;whiteSpace=wrap;html=1;" parent="1" vertex="1">
                    <mxGeometry x="-458" y="320" width="90" height="40" as="geometry"/>
                </mxCell>
                <mxCell id="rxrXzZAJuEPQkS48RmaR-82" style="edgeStyle=orthogonalEdgeStyle;curved=1;rounded=0;orthogonalLoop=1;jettySize=auto;html=1;" parent="1" source="rxrXzZAJuEPQkS48RmaR-47" target="rxrXzZAJuEPQkS48RmaR-80" edge="1">
                    <mxGeometry relative="1" as="geometry"/>
                </mxCell>
                <mxCell id="rxrXzZAJuEPQkS48RmaR-47" value="&lt;code style=&quot;box-sizing: border-box ; font-family: &amp;#34;menlo&amp;#34; , &amp;#34;monaco&amp;#34; , &amp;#34;consolas&amp;#34; , &amp;#34;courier new&amp;#34; , monospace ; font-size: 14.4px ; padding: 2px 4px ; color: rgb(63 , 63 , 68) ; background-color: rgb(245 , 245 , 247) ; border-radius: 4px ; box-shadow: rgba(0 , 0 , 0 , 0.1) 0px 0px 0px 1px inset&quot;&gt;postgresql&lt;br&gt;&lt;/code&gt;" style="rounded=1;whiteSpace=wrap;html=1;" parent="1" vertex="1">
                    <mxGeometry x="-380" y="390" width="120" height="60" as="geometry"/>
                </mxCell>
                <mxCell id="rxrXzZAJuEPQkS48RmaR-53" value="" style="shape=image;verticalLabelPosition=bottom;verticalAlign=top;aspect=fixed;imageAspect=0;image=https://hsto.org/webt/me/2l/pa/me2lpa5o0f7i3ijip-hioytti0i.png;" parent="1" vertex="1">
                    <mxGeometry x="-400" y="367.82" width="43" height="44.37" as="geometry"/>
                </mxCell>
                <mxCell id="rxrXzZAJuEPQkS48RmaR-54" value="" style="shape=image;verticalLabelPosition=bottom;verticalAlign=top;aspect=fixed;imageAspect=0;image=https://www.drupal.org/files/project-images/bootstrap-stack.png;" parent="1" vertex="1">
                    <mxGeometry x="-1010" y="449.99999999999994" width="50" height="42.02" as="geometry"/>
                </mxCell>
                <mxCell id="rxrXzZAJuEPQkS48RmaR-57" value="" style="shape=image;verticalLabelPosition=bottom;verticalAlign=top;aspect=fixed;imageAspect=0;image=https://www.spencergerdes.com/assets/images/jquery.png;" parent="1" vertex="1">
                    <mxGeometry x="-770" y="480.17" width="70" height="19.66" as="geometry"/>
                </mxCell>
                <mxCell id="rxrXzZAJuEPQkS48RmaR-62" style="edgeStyle=orthogonalEdgeStyle;curved=1;rounded=0;orthogonalLoop=1;jettySize=auto;html=1;" parent="1" source="rxrXzZAJuEPQkS48RmaR-61" target="rxrXzZAJuEPQkS48RmaR-4" edge="1">
                    <mxGeometry relative="1" as="geometry"/>
                </mxCell>
                <mxCell id="rxrXzZAJuEPQkS48RmaR-64" style="edgeStyle=orthogonalEdgeStyle;curved=1;rounded=0;orthogonalLoop=1;jettySize=auto;html=1;" parent="1" source="rxrXzZAJuEPQkS48RmaR-61" target="5" edge="1">
                    <mxGeometry relative="1" as="geometry">
                        <mxPoint x="-50" y="-30" as="targetPoint"/>
                    </mxGeometry>
                </mxCell>
                <mxCell id="rxrXzZAJuEPQkS48RmaR-61" value="Магазин" style="ellipse;whiteSpace=wrap;html=1;fontFamily=Helvetica;fontSize=12;align=center;" parent="1" vertex="1">
                    <mxGeometry x="-400" y="-20" width="120" height="60" as="geometry"/>
                </mxCell>
                <mxCell id="rxrXzZAJuEPQkS48RmaR-67" style="edgeStyle=orthogonalEdgeStyle;curved=1;rounded=0;orthogonalLoop=1;jettySize=auto;html=1;" parent="1" source="rxrXzZAJuEPQkS48RmaR-65" target="rxrXzZAJuEPQkS48RmaR-66" edge="1">
                    <mxGeometry relative="1" as="geometry">
                        <Array as="points">
                            <mxPoint x="70" y="250"/>
                            <mxPoint x="-70" y="250"/>
                        </Array>
                    </mxGeometry>
                </mxCell>
                <mxCell id="rxrXzZAJuEPQkS48RmaR-75" style="edgeStyle=orthogonalEdgeStyle;curved=1;rounded=0;orthogonalLoop=1;jettySize=auto;html=1;entryX=0.5;entryY=0;entryDx=0;entryDy=0;" parent="1" source="rxrXzZAJuEPQkS48RmaR-65" target="rxrXzZAJuEPQkS48RmaR-76" edge="1">
                    <mxGeometry relative="1" as="geometry">
                        <mxPoint x="60" y="290" as="targetPoint"/>
                    </mxGeometry>
                </mxCell>
                <mxCell id="rxrXzZAJuEPQkS48RmaR-87" style="edgeStyle=orthogonalEdgeStyle;curved=1;rounded=0;orthogonalLoop=1;jettySize=auto;html=1;entryX=0.5;entryY=0;entryDx=0;entryDy=0;exitX=0.5;exitY=1;exitDx=0;exitDy=0;" parent="1" source="rxrXzZAJuEPQkS48RmaR-65" target="rxrXzZAJuEPQkS48RmaR-84" edge="1">
                    <mxGeometry relative="1" as="geometry"/>
                </mxCell>
                <mxCell id="rxrXzZAJuEPQkS48RmaR-65" value="Хост&amp;nbsp;" style="ellipse;whiteSpace=wrap;html=1;fontFamily=Helvetica;fontSize=12;align=center;" parent="1" vertex="1">
                    <mxGeometry x="10" y="170" width="120" height="60" as="geometry"/>
                </mxCell>
                <mxCell id="rxrXzZAJuEPQkS48RmaR-71" style="edgeStyle=orthogonalEdgeStyle;curved=1;rounded=0;orthogonalLoop=1;jettySize=auto;html=1;entryX=0.5;entryY=0;entryDx=0;entryDy=0;" parent="1" source="rxrXzZAJuEPQkS48RmaR-66" target="rxrXzZAJuEPQkS48RmaR-70" edge="1">
                    <mxGeometry relative="1" as="geometry"/>
                </mxCell>
                <mxCell id="rxrXzZAJuEPQkS48RmaR-66" value="Microsoft Azure" style="rounded=0;whiteSpace=wrap;html=1;fontFamily=Helvetica;fontSize=12;align=center;" parent="1" vertex="1">
                    <mxGeometry x="-130" y="290" width="120" height="60" as="geometry"/>
                </mxCell>
                <mxCell id="21" style="edgeStyle=orthogonalEdgeStyle;rounded=0;orthogonalLoop=1;jettySize=auto;html=1;entryX=0.5;entryY=0;entryDx=0;entryDy=0;" parent="1" source="rxrXzZAJuEPQkS48RmaR-70" target="19" edge="1">
                    <mxGeometry relative="1" as="geometry"/>
                </mxCell>
                <mxCell id="rxrXzZAJuEPQkS48RmaR-70" value="Есть помощь студентам" style="rounded=0;whiteSpace=wrap;html=1;" parent="1" vertex="1">
                    <mxGeometry x="-130" y="380" width="120" height="60" as="geometry"/>
                </mxCell>
                <mxCell id="rxrXzZAJuEPQkS48RmaR-76" value="Amazon web Servies" style="rounded=0;whiteSpace=wrap;html=1;fontFamily=Helvetica;fontSize=12;align=center;" parent="1" vertex="1">
                    <mxGeometry x="10" y="290" width="120" height="60" as="geometry"/>
                </mxCell>
                <mxCell id="rxrXzZAJuEPQkS48RmaR-77" value="" style="shape=image;verticalLabelPosition=bottom;verticalAlign=top;aspect=fixed;imageAspect=0;image=http://datanetstracon.com/images/Azure.png;" parent="1" vertex="1">
                    <mxGeometry x="-139.99999999999997" y="227.32" width="85.29" height="62.65" as="geometry"/>
                </mxCell>
                <mxCell id="rxrXzZAJuEPQkS48RmaR-78" value="" style="shape=image;verticalLabelPosition=bottom;verticalAlign=top;aspect=fixed;imageAspect=0;image=https://www.itsec.ru/hubfs/ISR/AWS.png;" parent="1" vertex="1">
                    <mxGeometry x="80" y="246.32" width="66.67" height="50" as="geometry"/>
                </mxCell>
                <mxCell id="rxrXzZAJuEPQkS48RmaR-80" value="&lt;code style=&quot;box-sizing: border-box ; font-family: &amp;#34;menlo&amp;#34; , &amp;#34;monaco&amp;#34; , &amp;#34;consolas&amp;#34; , &amp;#34;courier new&amp;#34; , monospace ; font-size: 14.4px ; padding: 2px 4px ; color: rgb(63 , 63 , 68) ; background-color: rgb(245 , 245 , 247) ; border-radius: 4px ; box-shadow: rgba(0 , 0 , 0 , 0.1) 0px 0px 0px 1px inset&quot;&gt;dbeaver&lt;br&gt;&lt;/code&gt;" style="rounded=1;whiteSpace=wrap;html=1;" parent="1" vertex="1">
                    <mxGeometry x="-380" y="533" width="120" height="60" as="geometry"/>
                </mxCell>
                <mxCell id="rxrXzZAJuEPQkS48RmaR-81" value="" style="shape=image;verticalLabelPosition=bottom;verticalAlign=top;aspect=fixed;imageAspect=0;image=https://freesoft.ru/storage/images/214/2134/213379/213379_normal.png;" parent="1" vertex="1">
                    <mxGeometry x="-405" y="523" width="37" height="37" as="geometry"/>
                </mxCell>
                <mxCell id="rxrXzZAJuEPQkS48RmaR-83" value="Редактирование, добавление товаров" style="text;html=1;align=center;verticalAlign=middle;resizable=0;points=[];autosize=1;" parent="1" vertex="1">
                    <mxGeometry x="-390" y="500" width="230" height="20" as="geometry"/>
                </mxCell>
                <mxCell id="rxrXzZAJuEPQkS48RmaR-84" value="Heroku" style="rounded=0;whiteSpace=wrap;html=1;" parent="1" vertex="1">
                    <mxGeometry x="170" y="290" width="120" height="60" as="geometry"/>
                </mxCell>
                <mxCell id="rxrXzZAJuEPQkS48RmaR-85" value="" style="shape=image;verticalLabelPosition=bottom;verticalAlign=top;aspect=fixed;imageAspect=0;image=https://static.perimeter81.com/website20/images/b2bv2/organism/solutions/heroku/b2b-solutions-heroku-into__img.png;" parent="1" vertex="1">
                    <mxGeometry x="230" y="230" width="52" height="57.29" as="geometry"/>
                </mxCell>
                <mxCell id="rxrXzZAJuEPQkS48RmaR-88" value="Все бесплатные" style="text;html=1;align=center;verticalAlign=middle;resizable=0;points=[];autosize=1;" parent="1" vertex="1">
                    <mxGeometry x="70" y="150" width="110" height="20" as="geometry"/>
                </mxCell>
                <mxCell id="rxrXzZAJuEPQkS48RmaR-90" value="Название" style="rounded=0;whiteSpace=wrap;html=1;" parent="1" vertex="1">
                    <mxGeometry x="-1654" y="140" width="184" height="50" as="geometry"/>
                </mxCell>
                <mxCell id="rxrXzZAJuEPQkS48RmaR-91" value="Eshop" style="rounded=0;whiteSpace=wrap;html=1;" parent="1" vertex="1">
                    <mxGeometry x="-1470" y="140" width="210" height="50" as="geometry"/>
                </mxCell>
                <mxCell id="rxrXzZAJuEPQkS48RmaR-92" value="&lt;font style=&quot;font-size: 36px&quot;&gt;Данные по магазину&lt;/font&gt;" style="text;html=1;strokeColor=none;fillColor=none;align=center;verticalAlign=middle;whiteSpace=wrap;rounded=0;" parent="1" vertex="1">
                    <mxGeometry x="-1530" y="30" width="100" height="60" as="geometry"/>
                </mxCell>
                <mxCell id="rxrXzZAJuEPQkS48RmaR-93" value="Тег, указан рядом с названием, на вкладке" style="rounded=0;whiteSpace=wrap;html=1;" parent="1" vertex="1">
                    <mxGeometry x="-1654" y="190" width="184" height="50" as="geometry"/>
                </mxCell>
                <mxCell id="rxrXzZAJuEPQkS48RmaR-94" value="- магазин электротехники" style="rounded=0;whiteSpace=wrap;html=1;" parent="1" vertex="1">
                    <mxGeometry x="-1470" y="190" width="210" height="50" as="geometry"/>
                </mxCell>
                <mxCell id="rxrXzZAJuEPQkS48RmaR-95" value="Сколько времени хранить заказы на сайте к корзине" style="rounded=0;whiteSpace=wrap;html=1;" parent="1" vertex="1">
                    <mxGeometry x="-1654" y="240" width="184" height="50" as="geometry"/>
                </mxCell>
                <mxCell id="rxrXzZAJuEPQkS48RmaR-96" value="1 неделю" style="rounded=0;whiteSpace=wrap;html=1;" parent="1" vertex="1">
                    <mxGeometry x="-1470" y="240" width="210" height="50" as="geometry"/>
                </mxCell>
                <mxCell id="rxrXzZAJuEPQkS48RmaR-97" value="Заказ без регистрации" style="rounded=0;whiteSpace=wrap;html=1;" parent="1" vertex="1">
                    <mxGeometry x="-1654" y="290" width="184" height="50" as="geometry"/>
                </mxCell>
                <mxCell id="rxrXzZAJuEPQkS48RmaR-98" value="да" style="rounded=0;whiteSpace=wrap;html=1;" parent="1" vertex="1">
                    <mxGeometry x="-1470" y="290" width="210" height="50" as="geometry"/>
                </mxCell>
                <mxCell id="rxrXzZAJuEPQkS48RmaR-99" value="Отзыв без регистрации" style="rounded=0;whiteSpace=wrap;html=1;" parent="1" vertex="1">
                    <mxGeometry x="-1654" y="340" width="184" height="50" as="geometry"/>
                </mxCell>
                <mxCell id="rxrXzZAJuEPQkS48RmaR-100" value="нет" style="rounded=0;whiteSpace=wrap;html=1;" parent="1" vertex="1">
                    <mxGeometry x="-1470" y="340" width="210" height="50" as="geometry"/>
                </mxCell>
                <mxCell id="rxrXzZAJuEPQkS48RmaR-101" value="" style="rounded=0;whiteSpace=wrap;html=1;" parent="1" vertex="1">
                    <mxGeometry x="-1654" y="390" width="184" height="50" as="geometry"/>
                </mxCell>
                <mxCell id="rxrXzZAJuEPQkS48RmaR-102" value="" style="rounded=0;whiteSpace=wrap;html=1;" parent="1" vertex="1">
                    <mxGeometry x="-1470" y="390" width="210" height="50" as="geometry"/>
                </mxCell>
                <mxCell id="rxrXzZAJuEPQkS48RmaR-109" value="" style="rounded=0;whiteSpace=wrap;html=1;" parent="1" vertex="1">
                    <mxGeometry x="-1654" y="440" width="184" height="50" as="geometry"/>
                </mxCell>
                <mxCell id="rxrXzZAJuEPQkS48RmaR-110" value="" style="rounded=0;whiteSpace=wrap;html=1;" parent="1" vertex="1">
                    <mxGeometry x="-1470" y="440" width="210" height="50" as="geometry"/>
                </mxCell>
                <mxCell id="rxrXzZAJuEPQkS48RmaR-111" value="" style="rounded=0;whiteSpace=wrap;html=1;" parent="1" vertex="1">
                    <mxGeometry x="-1654" y="490" width="184" height="50" as="geometry"/>
                </mxCell>
                <mxCell id="rxrXzZAJuEPQkS48RmaR-112" value="" style="rounded=0;whiteSpace=wrap;html=1;" parent="1" vertex="1">
                    <mxGeometry x="-1470" y="490" width="210" height="50" as="geometry"/>
                </mxCell>
                <mxCell id="rxrXzZAJuEPQkS48RmaR-113" value="" style="rounded=0;whiteSpace=wrap;html=1;" parent="1" vertex="1">
                    <mxGeometry x="-1654" y="540" width="184" height="50" as="geometry"/>
                </mxCell>
                <mxCell id="rxrXzZAJuEPQkS48RmaR-114" value="" style="rounded=0;whiteSpace=wrap;html=1;" parent="1" vertex="1">
                    <mxGeometry x="-1470" y="540" width="210" height="50" as="geometry"/>
                </mxCell>
                <mxCell id="rxrXzZAJuEPQkS48RmaR-115" value="" style="rounded=0;whiteSpace=wrap;html=1;" parent="1" vertex="1">
                    <mxGeometry x="-1654" y="590" width="184" height="50" as="geometry"/>
                </mxCell>
                <mxCell id="rxrXzZAJuEPQkS48RmaR-116" value="" style="rounded=0;whiteSpace=wrap;html=1;" parent="1" vertex="1">
                    <mxGeometry x="-1470" y="590" width="210" height="50" as="geometry"/>
                </mxCell>
                <mxCell id="8" value="" style="shape=image;verticalLabelPosition=bottom;verticalAlign=top;aspect=fixed;imageAspect=0;image=https://res.cloudinary.com/startup-grind/image/upload/c_fill,dpr_2.0,f_auto,g_center,h_1080,q_100,w_1080/v1/gcs/platform-data-docker/chapter_logos/highres_449953548.jpeg;" parent="1" vertex="1">
                    <mxGeometry x="90" y="20" width="70" height="70" as="geometry"/>
                </mxCell>
                <mxCell id="10" value="CentOs" style="rounded=0;whiteSpace=wrap;html=1;" parent="1" vertex="1">
                    <mxGeometry x="-130" y="585" width="120" height="60" as="geometry"/>
                </mxCell>
                <mxCell id="13" value="+ Настроить доммен в зоне ru" style="text;html=1;strokeColor=none;fillColor=none;align=center;verticalAlign=middle;whiteSpace=wrap;rounded=0;" parent="1" vertex="1">
                    <mxGeometry x="15" y="625" width="40" height="20" as="geometry"/>
                </mxCell>
                <mxCell id="18" value="Выбран azure" style="text;html=1;align=center;verticalAlign=middle;resizable=0;points=[];autosize=1;" parent="1" vertex="1">
                    <mxGeometry x="-62.709999999999994" y="226.32" width="90" height="20" as="geometry"/>
                </mxCell>
                <mxCell id="20" style="edgeStyle=orthogonalEdgeStyle;rounded=0;orthogonalLoop=1;jettySize=auto;html=1;" parent="1" source="19" target="10" edge="1">
                    <mxGeometry relative="1" as="geometry"/>
                </mxCell>
                <mxCell id="23" style="edgeStyle=orthogonalEdgeStyle;rounded=0;orthogonalLoop=1;jettySize=auto;html=1;entryX=0;entryY=0.5;entryDx=0;entryDy=0;" parent="1" source="19" target="22" edge="1">
                    <mxGeometry relative="1" as="geometry"/>
                </mxCell>
                <mxCell id="19" value="виртуальная машина" style="rounded=0;whiteSpace=wrap;html=1;" parent="1" vertex="1">
                    <mxGeometry x="-130" y="480.17" width="120" height="60" as="geometry"/>
                </mxCell>
                <mxCell id="26" style="edgeStyle=orthogonalEdgeStyle;rounded=0;orthogonalLoop=1;jettySize=auto;html=1;entryX=0.5;entryY=0;entryDx=0;entryDy=0;curved=1;" parent="1" source="22" target="10" edge="1">
                    <mxGeometry relative="1" as="geometry">
                        <Array as="points">
                            <mxPoint x="130" y="560"/>
                            <mxPoint x="-70" y="560"/>
                        </Array>
                    </mxGeometry>
                </mxCell>
                <mxCell id="22" value="+ NGINX&amp;nbsp;" style="rounded=0;whiteSpace=wrap;html=1;" parent="1" vertex="1">
                    <mxGeometry x="70" y="480.17" width="120" height="59.83" as="geometry"/>
                </mxCell>
                <mxCell id="37" value="&lt;font style=&quot;font-size: 25px&quot;&gt;User Story&lt;/font&gt;" style="text;html=1;align=center;verticalAlign=middle;resizable=0;points=[];autosize=1;" parent="1" vertex="1">
                    <mxGeometry x="-630" y="-1010" width="130" height="20" as="geometry"/>
                </mxCell>
                <mxCell id="81" value="Заголовок" style="rounded=0;whiteSpace=wrap;html=1;fillColor=#dae8fc;strokeColor=#6c8ebf;" vertex="1" parent="1">
                    <mxGeometry x="-1625" y="-850" width="420" height="60" as="geometry"/>
                </mxCell>
                <mxCell id="82" value="Примечание&amp;nbsp;" style="rounded=0;whiteSpace=wrap;html=1;fillColor=#dae8fc;strokeColor=#6c8ebf;" vertex="1" parent="1">
                    <mxGeometry x="-1625" y="-750" width="210" height="80" as="geometry"/>
                </mxCell>
                <mxCell id="83" value="Заказчик (actor)" style="rounded=0;whiteSpace=wrap;html=1;fillColor=#dae8fc;strokeColor=#6c8ebf;" vertex="1" parent="1">
                    <mxGeometry x="-1625" y="-800" width="210" height="50" as="geometry"/>
                </mxCell>
                <mxCell id="84" value="Цель" style="rounded=0;whiteSpace=wrap;html=1;fillColor=#dae8fc;strokeColor=#6c8ebf;" vertex="1" parent="1">
                    <mxGeometry x="-1625" y="-670" width="210" height="50" as="geometry"/>
                </mxCell>
                <mxCell id="85" value="Как" style="rounded=0;whiteSpace=wrap;html=1;" vertex="1" parent="1">
                    <mxGeometry x="-1415" y="-800" width="210" height="50" as="geometry"/>
                </mxCell>
                <mxCell id="86" value="Чтобы&amp;nbsp;" style="rounded=0;whiteSpace=wrap;html=1;" vertex="1" parent="1">
                    <mxGeometry x="-1415" y="-670" width="210" height="50" as="geometry"/>
                </mxCell>
                <mxCell id="87" value="Я хочу" style="rounded=0;whiteSpace=wrap;html=1;" vertex="1" parent="1">
                    <mxGeometry x="-1415" y="-750" width="210" height="80" as="geometry"/>
                </mxCell>
                <mxCell id="88" value="Покупатель" style="rounded=0;whiteSpace=wrap;html=1;" vertex="1" parent="1">
                    <mxGeometry x="-1205" y="-850" width="210" height="50" as="geometry"/>
                </mxCell>
                <mxCell id="89" value="Увидеть подробную информацию товара, разбиение на катологи, скидки, увидеть цену с учетом доставки" style="rounded=0;whiteSpace=wrap;html=1;" vertex="1" parent="1">
                    <mxGeometry x="-1205" y="-750" width="210" height="80" as="geometry"/>
                </mxCell>
                <mxCell id="90" value="Покупатель" style="rounded=0;whiteSpace=wrap;html=1;" vertex="1" parent="1">
                    <mxGeometry x="-1205" y="-800" width="210" height="50" as="geometry"/>
                </mxCell>
                <mxCell id="91" value="Получить максимальную выгоду" style="rounded=0;whiteSpace=wrap;html=1;" vertex="1" parent="1">
                    <mxGeometry x="-1205" y="-670" width="210" height="50" as="geometry"/>
                </mxCell>
                <mxCell id="92" value="Заголовок" style="rounded=0;whiteSpace=wrap;html=1;fillColor=#dae8fc;strokeColor=#6c8ebf;" vertex="1" parent="1">
                    <mxGeometry x="-245" y="-850" width="420" height="60" as="geometry"/>
                </mxCell>
                <mxCell id="93" value="Примечание&amp;nbsp;" style="rounded=0;whiteSpace=wrap;html=1;fillColor=#dae8fc;strokeColor=#6c8ebf;" vertex="1" parent="1">
                    <mxGeometry x="-245" y="-750" width="210" height="50" as="geometry"/>
                </mxCell>
                <mxCell id="94" value="Заказчик (actor)" style="rounded=0;whiteSpace=wrap;html=1;fillColor=#dae8fc;strokeColor=#6c8ebf;" vertex="1" parent="1">
                    <mxGeometry x="-245" y="-800" width="210" height="50" as="geometry"/>
                </mxCell>
                <mxCell id="95" value="Цель" style="rounded=0;whiteSpace=wrap;html=1;fillColor=#dae8fc;strokeColor=#6c8ebf;" vertex="1" parent="1">
                    <mxGeometry x="-245" y="-700" width="210" height="50" as="geometry"/>
                </mxCell>
                <mxCell id="96" value="Как" style="rounded=0;whiteSpace=wrap;html=1;" vertex="1" parent="1">
                    <mxGeometry x="-35" y="-800" width="210" height="50" as="geometry"/>
                </mxCell>
                <mxCell id="97" value="Чтобы&amp;nbsp;" style="rounded=0;whiteSpace=wrap;html=1;" vertex="1" parent="1">
                    <mxGeometry x="-35" y="-700" width="210" height="50" as="geometry"/>
                </mxCell>
                <mxCell id="98" value="Я хочу" style="rounded=0;whiteSpace=wrap;html=1;" vertex="1" parent="1">
                    <mxGeometry x="-35" y="-750" width="210" height="50" as="geometry"/>
                </mxCell>
                <mxCell id="99" value="Заказчик" style="rounded=0;whiteSpace=wrap;html=1;" vertex="1" parent="1">
                    <mxGeometry x="175" y="-850" width="210" height="50" as="geometry"/>
                </mxCell>
                <mxCell id="100" value="Готовый сайт по магазину со всеми необходимыми функциями" style="rounded=0;whiteSpace=wrap;html=1;" vertex="1" parent="1">
                    <mxGeometry x="175" y="-750" width="210" height="50" as="geometry"/>
                </mxCell>
                <mxCell id="101" value="Заказчик" style="rounded=0;whiteSpace=wrap;html=1;" vertex="1" parent="1">
                    <mxGeometry x="175" y="-800" width="210" height="50" as="geometry"/>
                </mxCell>
                <mxCell id="102" value="Разместить свою продукцию в интернете, привлечь покупателей и получить максимальную прибыль" style="rounded=0;whiteSpace=wrap;html=1;" vertex="1" parent="1">
                    <mxGeometry x="175" y="-700" width="210" height="50" as="geometry"/>
                </mxCell>
                <mxCell id="103" value="Примечание&amp;nbsp;" style="rounded=0;whiteSpace=wrap;html=1;fillColor=#dae8fc;strokeColor=#6c8ebf;" vertex="1" parent="1">
                    <mxGeometry x="-945" y="-750" width="210" height="50" as="geometry"/>
                </mxCell>
                <mxCell id="104" value="Заказчик (actor)" style="rounded=0;whiteSpace=wrap;html=1;fillColor=#dae8fc;strokeColor=#6c8ebf;" vertex="1" parent="1">
                    <mxGeometry x="-945" y="-800" width="210" height="50" as="geometry"/>
                </mxCell>
                <mxCell id="105" value="Цель" style="rounded=0;whiteSpace=wrap;html=1;fillColor=#dae8fc;strokeColor=#6c8ebf;" vertex="1" parent="1">
                    <mxGeometry x="-945" y="-700" width="210" height="50" as="geometry"/>
                </mxCell>
                <mxCell id="106" value="Как" style="rounded=0;whiteSpace=wrap;html=1;" vertex="1" parent="1">
                    <mxGeometry x="-735" y="-800" width="210" height="50" as="geometry"/>
                </mxCell>
                <mxCell id="107" value="Чтобы&amp;nbsp;" style="rounded=0;whiteSpace=wrap;html=1;" vertex="1" parent="1">
                    <mxGeometry x="-735" y="-700" width="210" height="50" as="geometry"/>
                </mxCell>
                <mxCell id="108" value="Я хочу" style="rounded=0;whiteSpace=wrap;html=1;" vertex="1" parent="1">
                    <mxGeometry x="-735" y="-750" width="210" height="50" as="geometry"/>
                </mxCell>
                <mxCell id="109" value="Менеджер" style="rounded=0;whiteSpace=wrap;html=1;" vertex="1" parent="1">
                    <mxGeometry x="-525" y="-850" width="210" height="50" as="geometry"/>
                </mxCell>
                <mxCell id="110" value="Подробнуюю статистику о купленных товарах, ведение логов покупок" style="rounded=0;whiteSpace=wrap;html=1;" vertex="1" parent="1">
                    <mxGeometry x="-525" y="-750" width="210" height="50" as="geometry"/>
                </mxCell>
                <mxCell id="111" value="Менеджер" style="rounded=0;whiteSpace=wrap;html=1;" vertex="1" parent="1">
                    <mxGeometry x="-525" y="-800" width="210" height="50" as="geometry"/>
                </mxCell>
                <mxCell id="112" value="Выгодно продать товар и доставить покупателю" style="rounded=0;whiteSpace=wrap;html=1;" vertex="1" parent="1">
                    <mxGeometry x="-525" y="-700" width="210" height="50" as="geometry"/>
                </mxCell>
                <mxCell id="113" value="Заголовок" style="rounded=0;whiteSpace=wrap;html=1;fillColor=#dae8fc;strokeColor=#6c8ebf;" vertex="1" parent="1">
                    <mxGeometry x="-945" y="-850" width="420" height="50" as="geometry"/>
                </mxCell>
                <mxCell id="274" value="Заголовок" style="rounded=0;whiteSpace=wrap;html=1;" vertex="1" parent="1">
                    <mxGeometry x="-240" y="-850" width="420" height="60" as="geometry"/>
                </mxCell>
                <mxCell id="275" value="Примечание&amp;nbsp;" style="rounded=0;whiteSpace=wrap;html=1;" vertex="1" parent="1">
                    <mxGeometry x="-240" y="-750" width="210" height="50" as="geometry"/>
                </mxCell>
                <mxCell id="276" value="Заказчик (actor)" style="rounded=0;whiteSpace=wrap;html=1;" vertex="1" parent="1">
                    <mxGeometry x="-240" y="-800" width="210" height="50" as="geometry"/>
                </mxCell>
                <mxCell id="277" value="Цель" style="rounded=0;whiteSpace=wrap;html=1;" vertex="1" parent="1">
                    <mxGeometry x="-240" y="-700" width="210" height="50" as="geometry"/>
                </mxCell>
                <mxCell id="278" value="&lt;font style=&quot;font-size: 25px&quot;&gt;User Story&lt;/font&gt;" style="text;html=1;align=center;verticalAlign=middle;resizable=0;points=[];autosize=1;" vertex="1" parent="1">
                    <mxGeometry x="10" y="-920" width="130" height="20" as="geometry"/>
                </mxCell>
                <mxCell id="279" value="Как" style="rounded=0;whiteSpace=wrap;html=1;" vertex="1" parent="1">
                    <mxGeometry x="-30" y="-800" width="210" height="50" as="geometry"/>
                </mxCell>
                <mxCell id="280" value="Чтобы&amp;nbsp;" style="rounded=0;whiteSpace=wrap;html=1;" vertex="1" parent="1">
                    <mxGeometry x="-30" y="-700" width="210" height="50" as="geometry"/>
                </mxCell>
                <mxCell id="281" value="Я хочу" style="rounded=0;whiteSpace=wrap;html=1;" vertex="1" parent="1">
                    <mxGeometry x="-30" y="-750" width="210" height="50" as="geometry"/>
                </mxCell>
                <mxCell id="282" value="Заказчик" style="rounded=0;whiteSpace=wrap;html=1;" vertex="1" parent="1">
                    <mxGeometry x="180" y="-850" width="210" height="50" as="geometry"/>
                </mxCell>
                <mxCell id="283" value="Готовый сайт" style="rounded=0;whiteSpace=wrap;html=1;" vertex="1" parent="1">
                    <mxGeometry x="180" y="-750" width="210" height="50" as="geometry"/>
                </mxCell>
                <mxCell id="284" value="Заказчик" style="rounded=0;whiteSpace=wrap;html=1;" vertex="1" parent="1">
                    <mxGeometry x="180" y="-800" width="210" height="50" as="geometry"/>
                </mxCell>
                <mxCell id="285" value="Разместить свою продукцию в интернете" style="rounded=0;whiteSpace=wrap;html=1;" vertex="1" parent="1">
                    <mxGeometry x="180" y="-700" width="210" height="50" as="geometry"/>
                </mxCell>
                <mxCell id="287" value="Примечание&amp;nbsp;" style="rounded=0;whiteSpace=wrap;html=1;" vertex="1" parent="1">
                    <mxGeometry x="-940" y="-750" width="210" height="50" as="geometry"/>
                </mxCell>
                <mxCell id="288" value="Заказчик (actor)" style="rounded=0;whiteSpace=wrap;html=1;" vertex="1" parent="1">
                    <mxGeometry x="-940" y="-800" width="210" height="50" as="geometry"/>
                </mxCell>
                <mxCell id="289" value="Цель" style="rounded=0;whiteSpace=wrap;html=1;" vertex="1" parent="1">
                    <mxGeometry x="-940" y="-700" width="210" height="50" as="geometry"/>
                </mxCell>
                <mxCell id="290" value="&lt;font style=&quot;font-size: 25px&quot;&gt;User Story&lt;/font&gt;" style="text;html=1;align=center;verticalAlign=middle;resizable=0;points=[];autosize=1;" vertex="1" parent="1">
                    <mxGeometry x="-690" y="-920" width="130" height="20" as="geometry"/>
                </mxCell>
                <mxCell id="291" value="Как" style="rounded=0;whiteSpace=wrap;html=1;" vertex="1" parent="1">
                    <mxGeometry x="-730" y="-800" width="210" height="50" as="geometry"/>
                </mxCell>
                <mxCell id="292" value="Чтобы&amp;nbsp;" style="rounded=0;whiteSpace=wrap;html=1;" vertex="1" parent="1">
                    <mxGeometry x="-730" y="-700" width="210" height="50" as="geometry"/>
                </mxCell>
                <mxCell id="293" value="Я хочу" style="rounded=0;whiteSpace=wrap;html=1;" vertex="1" parent="1">
                    <mxGeometry x="-730" y="-750" width="210" height="50" as="geometry"/>
                </mxCell>
                <mxCell id="294" value="Менеджер" style="rounded=0;whiteSpace=wrap;html=1;" vertex="1" parent="1">
                    <mxGeometry x="-520" y="-850" width="210" height="50" as="geometry"/>
                </mxCell>
                <mxCell id="295" value="Подробнуюю статистику о купленных товарах, ведение логов покупок" style="rounded=0;whiteSpace=wrap;html=1;" vertex="1" parent="1">
                    <mxGeometry x="-520" y="-750" width="210" height="50" as="geometry"/>
                </mxCell>
                <mxCell id="296" value="Менеджер" style="rounded=0;whiteSpace=wrap;html=1;" vertex="1" parent="1">
                    <mxGeometry x="-520" y="-800" width="210" height="50" as="geometry"/>
                </mxCell>
                <mxCell id="297" value="Выгодно продать товар" style="rounded=0;whiteSpace=wrap;html=1;" vertex="1" parent="1">
                    <mxGeometry x="-520" y="-700" width="210" height="50" as="geometry"/>
                </mxCell>
                <mxCell id="299" value="Заголовок" style="rounded=0;whiteSpace=wrap;html=1;" vertex="1" parent="1">
                    <mxGeometry x="-940" y="-850" width="420" height="50" as="geometry"/>
                </mxCell>
            </root>
        </mxGraphModel>
    </diagram>
</mxfile>
